<?xml version="1.0" standalone="no"?><!DOCTYPE svg PUBLIC "-//W3C//DTD SVG 1.1//EN" "http://www.w3.org/Graphics/SVG/1.1/DTD/svg11.dtd"><svg t="1611384759135" class="icon" viewBox="0 0 1024 1024" version="1.1" xmlns="http://www.w3.org/2000/svg" p-id="3571" xmlns:xlink="http://www.w3.org/1999/xlink" width="200" height="200"><defs><style type="text/css"></style></defs><path d="M706.2 1005.6L395 705.2c-24-23.1-24.7-61.8-1.5-85.7 23.1-24 61.8-24.7 85.7-1.5l311.1 300.5c24 23.1 24.7 61.8 1.5 85.7-23 24-61.7 24.7-85.6 1.4z m-389-460.2l456-440.3c24-23.1 24.7-61.8 1.5-85.7-23.1-24-61.8-24.7-85.7-1.5L233 458.1c-24 23.1-24.7 61.8-1.5 85.7 23.1 24 61.7 24.7 85.7 1.6z m0 0" fill="" p-id="3572"></path></svg>